<svg id="svg" version="1.1" xmlns="http://www.w3.org/2000/svg" xmlns:xlink="http://www.w3.org/1999/xlink" width="400" height="267.96292109427986" viewBox="0, 0, 400,267.96292109427986"><g id="svgg"><path id="path1" d="M168.417 0.168 C 167.225 0.245,165.537 0.391,164.667 0.494 C 163.796 0.596,161.771 0.827,160.167 1.007 C 157.311 1.328,156.661 1.430,152.250 2.252 C 147.628 3.113,139.545 5.128,137.917 5.824 C 137.733 5.903,136.308 6.398,134.750 6.926 C 133.192 7.454,131.842 7.936,131.750 7.997 C 131.658 8.059,131.208 8.245,130.750 8.410 C 130.292 8.576,129.521 8.888,129.037 9.105 C 128.553 9.322,128.112 9.500,128.058 9.500 C 127.911 9.500,125.540 10.569,123.167 11.705 C 119.997 13.222,115.520 15.698,114.583 16.452 C 114.492 16.526,114.192 16.730,113.917 16.906 C 113.448 17.207,111.021 19.088,110.067 19.889 C 107.541 22.013,104.291 25.282,102.500 27.501 C 102.179 27.898,101.727 28.454,101.495 28.737 C 98.015 32.970,95.054 38.976,94.255 43.423 C 92.831 51.350,95.927 60.147,101.881 65.092 C 102.176 65.337,102.717 65.810,103.084 66.143 C 104.284 67.235,105.645 68.284,108.083 69.998 C 108.358 70.191,109.035 70.627,109.588 70.966 C 110.140 71.306,110.740 71.676,110.921 71.790 C 111.102 71.904,111.625 72.201,112.083 72.451 C 112.542 72.700,113.047 72.982,113.207 73.077 C 118.300 76.114,125.784 78.626,133.583 79.916 C 134.958 80.144,136.458 80.406,136.917 80.498 C 142.323 81.583,159.214 82.273,169.667 81.835 C 175.675 81.583,187.424 80.810,188.745 80.580 C 189.017 80.533,191.079 80.307,193.328 80.079 C 195.577 79.851,197.611 79.624,197.847 79.575 C 198.084 79.526,199.922 79.269,201.931 79.003 C 206.260 78.432,211.946 77.577,213.000 77.339 C 213.412 77.246,214.950 76.974,216.417 76.735 C 224.997 75.334,230.215 74.766,241.833 73.967 C 245.412 73.720,265.020 73.717,268.667 73.962 C 278.194 74.602,286.447 75.400,291.333 76.153 C 298.908 77.320,305.320 78.572,310.500 79.896 C 314.440 80.903,319.750 82.413,320.169 82.646 C 320.307 82.723,320.870 82.917,321.419 83.075 C 322.594 83.416,327.883 85.374,329.083 85.913 C 329.542 86.119,330.104 86.346,330.333 86.417 C 330.563 86.488,331.139 86.723,331.614 86.940 C 332.090 87.156,332.515 87.333,332.560 87.333 C 332.605 87.333,333.229 87.604,333.946 87.936 C 334.663 88.267,335.986 88.869,336.886 89.274 C 339.829 90.596,347.306 94.446,349.470 95.752 C 349.624 95.845,350.275 96.216,350.917 96.577 C 351.558 96.938,352.473 97.481,352.950 97.783 C 353.427 98.086,353.860 98.333,353.911 98.333 C 353.963 98.333,354.398 98.585,354.878 98.893 C 355.357 99.201,356.313 99.814,357.000 100.256 C 359.216 101.678,362.878 104.127,364.333 105.160 C 365.113 105.713,365.938 106.296,366.167 106.455 C 366.856 106.935,371.214 110.247,371.726 110.680 C 371.989 110.902,372.497 111.338,372.856 111.648 C 374.652 113.202,373.603 111.823,367.494 104.598 C 366.897 103.892,365.962 102.831,365.617 102.467 C 365.452 102.293,364.782 101.536,364.127 100.784 C 363.473 100.032,362.586 99.042,362.157 98.583 C 361.728 98.125,360.415 96.700,359.239 95.417 C 356.098 91.988,355.672 91.537,352.750 88.526 C 347.150 82.755,341.904 77.609,336.417 72.505 C 335.592 71.738,334.504 70.724,334.000 70.254 C 333.496 69.783,332.408 68.806,331.583 68.084 C 330.758 67.361,330.046 66.719,330.000 66.658 C 329.913 66.541,326.298 63.398,324.931 62.250 C 324.494 61.883,323.931 61.396,323.681 61.167 C 323.430 60.938,322.904 60.487,322.513 60.167 C 322.121 59.846,321.674 59.471,321.519 59.333 C 321.364 59.196,320.680 58.633,319.998 58.083 C 318.543 56.910,318.470 56.850,316.813 55.473 C 315.332 54.242,312.391 51.901,310.822 50.706 C 309.379 49.605,304.134 45.660,303.639 45.303 C 303.425 45.149,302.725 44.646,302.083 44.186 C 301.442 43.726,300.836 43.280,300.737 43.195 C 300.638 43.110,300.263 42.846,299.904 42.608 C 299.281 42.197,296.846 40.486,296.036 39.891 C 295.827 39.737,294.364 38.762,292.786 37.724 C 289.262 35.405,289.614 35.636,288.417 34.867 C 287.867 34.514,287.004 33.959,286.500 33.635 C 285.996 33.310,285.358 32.920,285.083 32.766 C 284.808 32.613,284.267 32.284,283.881 32.036 C 283.187 31.589,279.061 29.101,278.417 28.741 C 275.881 27.324,274.990 26.821,274.500 26.531 C 274.179 26.341,273.054 25.727,272.000 25.168 C 270.946 24.608,269.971 24.081,269.833 23.996 C 268.878 23.409,259.519 18.853,257.000 17.749 C 256.221 17.408,255.011 16.875,254.312 16.565 C 253.613 16.254,252.994 16.000,252.936 16.000 C 252.877 16.000,252.512 15.853,252.123 15.673 C 251.353 15.317,249.373 14.527,247.667 13.894 C 247.071 13.673,246.433 13.418,246.250 13.328 C 246.067 13.237,244.642 12.722,243.083 12.184 C 241.525 11.645,240.137 11.160,240.000 11.105 C 238.993 10.701,229.900 7.876,227.583 7.247 C 220.045 5.201,215.733 4.183,210.333 3.172 C 208.912 2.907,207.637 2.648,207.500 2.598 C 207.362 2.548,205.975 2.320,204.417 2.092 C 202.858 1.864,201.132 1.601,200.580 1.508 C 199.718 1.362,195.378 0.887,189.667 0.314 C 187.567 0.103,171.173 -0.010,168.417 0.168 " stroke="none" fill="#e41c24" fill-rule="evenodd"></path><path id="path2" d="M8.994 228.419 C 4.932 229.405,2.917 231.780,2.917 235.580 C 2.917 239.173,4.755 241.295,8.833 242.408 C 9.429 242.570,10.067 242.769,10.250 242.848 C 10.433 242.928,11.371 243.173,12.333 243.393 C 18.631 244.831,20.401 246.354,19.396 249.466 C 18.271 252.949,11.189 253.842,7.427 250.975 C 6.515 250.280,5.696 248.894,5.425 247.583 L 5.217 246.583 3.484 246.644 C 1.387 246.717,1.575 246.518,1.883 248.341 C 2.475 251.856,4.625 254.241,8.293 255.452 C 11.418 256.484,18.468 255.908,19.493 254.536 C 19.543 254.470,19.913 254.192,20.316 253.918 C 22.525 252.418,23.775 249.082,23.157 246.333 C 22.374 242.855,19.974 241.284,12.833 239.577 C 8.193 238.468,6.693 237.636,6.420 236.019 C 5.962 233.306,7.943 231.699,11.935 231.546 C 16.081 231.388,18.360 232.809,18.782 235.815 L 18.885 236.547 20.629 236.449 C 22.728 236.330,22.613 236.429,22.361 234.959 C 21.792 231.639,19.284 229.169,15.719 228.413 C 14.276 228.107,10.261 228.111,8.994 228.419 M94.417 228.417 C 91.912 228.979,89.393 230.525,87.746 232.510 C 83.893 237.154,83.818 246.500,87.596 251.339 C 93.310 258.658,105.951 257.201,109.326 248.833 C 109.529 248.329,109.756 247.800,109.829 247.657 C 110.820 245.735,110.825 237.883,109.837 236.583 C 109.767 236.492,109.617 236.117,109.504 235.750 C 107.858 230.418,100.797 226.987,94.417 228.417 M175.640 228.407 C 174.011 228.765,172.570 229.497,171.515 230.505 C 168.602 233.285,168.621 238.137,171.553 240.511 C 172.994 241.677,174.384 242.215,179.083 243.426 C 183.071 244.452,183.342 244.542,184.367 245.162 C 187.166 246.854,186.750 250.619,183.621 251.910 C 183.234 252.070,182.767 252.283,182.583 252.383 C 182.400 252.484,181.294 252.597,180.125 252.636 C 175.576 252.786,172.677 250.928,171.970 247.408 L 171.779 246.458 170.782 246.562 C 170.233 246.620,169.458 246.667,169.059 246.667 L 168.333 246.667 168.333 247.382 C 168.333 251.503,171.747 255.015,176.556 255.843 C 184.050 257.133,189.750 253.709,189.750 247.917 C 189.750 243.509,187.475 241.475,180.823 239.935 C 174.126 238.384,173.083 237.763,173.083 235.329 C 173.083 232.681,174.794 231.583,178.917 231.583 C 183.000 231.583,184.832 232.797,185.400 235.875 L 185.515 236.500 186.484 236.500 C 187.017 236.500,187.801 236.452,188.227 236.394 L 189.000 236.288 189.000 235.591 C 189.000 230.431,182.458 226.913,175.640 228.407 M234.250 228.414 C 230.216 229.307,228.083 231.785,228.083 235.583 C 228.083 239.097,229.696 241.048,233.595 242.253 C 234.413 242.506,235.233 242.773,235.417 242.846 C 235.600 242.919,236.537 243.166,237.500 243.394 C 243.248 244.756,244.607 245.606,244.795 247.955 C 245.028 250.862,242.595 252.583,238.250 252.583 C 233.796 252.583,231.128 250.767,230.533 247.327 L 230.404 246.583 228.660 246.644 C 226.565 246.717,226.770 246.528,227.009 248.160 C 227.725 253.058,231.375 255.779,237.468 255.959 C 244.652 256.171,248.850 252.838,248.436 247.250 C 248.157 243.481,245.591 241.385,239.485 239.941 C 232.738 238.345,231.583 237.673,231.583 235.340 C 231.583 232.713,233.832 231.395,238.076 231.535 C 241.623 231.652,243.574 233.060,243.946 235.773 L 244.052 236.547 245.795 236.449 C 247.895 236.330,247.779 236.430,247.531 234.953 C 246.676 229.851,240.811 226.963,234.250 228.414 M259.255 228.435 C 255.255 229.402,253.250 231.787,253.250 235.580 C 253.250 239.916,255.216 241.564,262.500 243.335 C 268.164 244.712,269.572 245.556,269.929 247.790 C 270.637 252.216,262.820 254.390,257.947 251.122 C 256.956 250.457,256.045 248.986,255.756 247.584 L 255.551 246.583 253.817 246.644 C 251.720 246.717,251.908 246.518,252.216 248.341 C 252.813 251.881,254.932 254.232,258.626 255.452 C 261.752 256.484,268.801 255.908,269.827 254.536 C 269.876 254.470,270.246 254.192,270.650 253.918 C 272.859 252.418,274.108 249.082,273.490 246.333 C 272.708 242.855,270.307 241.284,263.167 239.577 C 258.526 238.468,257.026 237.636,256.753 236.019 C 256.295 233.306,258.277 231.699,262.268 231.546 C 266.445 231.387,269.167 233.196,269.167 236.131 L 269.167 236.550 270.936 236.450 C 273.065 236.329,272.946 236.430,272.694 234.959 C 272.125 231.639,269.618 229.169,266.052 228.413 C 264.565 228.098,260.596 228.111,259.255 228.435 M35.005 229.625 C 34.791 230.244,34.565 230.825,34.503 230.917 C 34.440 231.008,34.220 231.571,34.012 232.167 C 33.593 233.367,32.564 236.064,32.327 236.583 C 32.243 236.767,31.994 237.404,31.774 238.000 C 31.553 238.596,31.137 239.721,30.849 240.500 C 30.560 241.279,30.252 242.067,30.163 242.250 C 30.074 242.433,29.821 243.071,29.601 243.667 C 29.009 245.268,28.273 247.195,27.501 249.167 C 27.124 250.129,26.669 251.329,26.491 251.833 C 26.312 252.338,26.092 252.900,26.000 253.083 C 25.791 253.502,25.167 255.336,25.167 255.531 C 25.167 255.612,26.048 255.656,27.124 255.630 L 29.082 255.583 29.712 253.833 C 30.059 252.871,30.704 251.071,31.146 249.833 L 31.950 247.583 37.532 247.539 L 43.114 247.496 43.828 249.373 C 44.220 250.405,44.860 252.075,45.249 253.083 C 45.639 254.092,46.009 255.085,46.073 255.292 C 46.185 255.652,50.036 255.908,50.367 255.577 C 50.457 255.487,49.911 253.980,49.343 252.750 C 49.173 252.383,48.979 251.896,48.911 251.667 C 48.843 251.438,48.584 250.800,48.334 250.250 C 48.085 249.700,47.787 248.950,47.672 248.583 C 47.557 248.217,47.370 247.767,47.257 247.583 C 47.143 247.400,46.953 246.950,46.835 246.583 C 46.716 246.217,46.405 245.446,46.143 244.871 C 45.881 244.296,45.667 243.780,45.667 243.725 C 45.667 243.670,45.483 243.203,45.259 242.688 C 45.034 242.172,44.364 240.550,43.770 239.083 C 41.940 234.566,39.987 229.781,39.705 229.125 L 39.436 228.500 37.415 228.500 L 35.395 228.500 35.005 229.625 M47.829 229.375 C 48.001 229.856,48.449 231.037,48.827 232.000 C 49.204 232.963,49.666 234.162,49.854 234.667 C 50.042 235.171,50.294 235.808,50.413 236.083 C 50.532 236.358,50.801 237.071,51.010 237.667 C 51.219 238.262,51.442 238.825,51.506 238.917 C 51.570 239.008,51.789 239.571,51.992 240.167 C 52.195 240.762,52.420 241.325,52.492 241.417 C 52.564 241.508,52.792 242.108,53.000 242.750 C 53.208 243.392,53.431 243.992,53.495 244.083 C 53.560 244.175,53.786 244.737,53.997 245.333 C 54.209 245.929,54.479 246.642,54.598 246.917 C 54.717 247.192,55.199 248.429,55.670 249.667 C 57.221 253.745,57.677 254.912,57.868 255.292 C 58.046 255.647,58.154 255.667,59.917 255.667 C 62.056 255.667,61.815 255.851,62.647 253.583 C 62.916 252.850,63.673 250.900,64.329 249.250 C 64.986 247.600,65.669 245.838,65.848 245.333 C 66.027 244.829,66.312 244.117,66.480 243.750 C 66.649 243.383,66.883 242.783,66.999 242.417 C 67.115 242.050,67.263 241.675,67.327 241.583 C 67.391 241.492,67.615 240.929,67.823 240.333 C 68.032 239.737,68.302 239.025,68.422 238.750 C 68.542 238.475,68.903 237.575,69.224 236.750 C 69.545 235.925,70.376 233.803,71.070 232.035 C 71.765 230.266,72.333 228.747,72.333 228.660 C 72.333 228.567,71.531 228.500,70.429 228.500 L 68.524 228.500 68.201 229.375 C 68.023 229.856,67.783 230.550,67.667 230.917 C 67.551 231.283,67.402 231.658,67.335 231.750 C 67.268 231.842,67.020 232.479,66.784 233.167 C 66.291 234.604,65.143 237.729,63.661 241.667 C 63.368 242.446,62.883 243.758,62.582 244.583 C 62.282 245.408,61.797 246.721,61.504 247.500 C 61.211 248.279,60.731 249.667,60.437 250.583 L 59.901 252.250 59.672 251.417 C 59.434 250.552,55.940 240.504,55.673 239.917 C 55.590 239.733,55.362 239.096,55.167 238.500 C 54.971 237.904,54.743 237.267,54.660 237.083 C 54.510 236.754,51.882 229.356,51.714 228.792 C 51.638 228.534,51.386 228.500,49.573 228.500 L 47.518 228.500 47.829 229.375 M76.000 242.083 L 76.000 255.667 77.917 255.667 L 79.833 255.667 79.833 242.083 L 79.833 228.500 77.917 228.500 L 76.000 228.500 76.000 242.083 M115.167 236.708 C 115.167 248.738,115.468 250.816,117.543 253.109 C 120.943 256.867,129.696 257.121,133.640 253.576 C 136.193 251.280,136.391 250.192,136.456 238.125 L 136.508 228.500 134.683 228.500 L 132.858 228.500 132.784 237.708 C 132.704 247.564,132.668 248.014,131.838 249.656 C 129.639 254.002,121.250 253.443,119.496 248.833 L 119.083 247.750 119.035 238.125 L 118.987 228.500 117.077 228.500 L 115.167 228.500 115.167 236.708 M142.333 242.070 L 142.333 255.667 144.250 255.667 L 146.167 255.667 146.167 249.667 L 146.167 243.667 148.910 243.667 C 152.783 243.667,154.149 244.287,155.884 246.833 C 156.165 247.246,156.437 247.621,156.489 247.667 C 156.632 247.793,157.879 249.697,160.990 254.542 L 161.713 255.667 164.023 255.667 C 165.294 255.667,166.333 255.619,166.333 255.560 C 166.333 255.501,165.933 254.845,165.444 254.102 C 164.955 253.358,164.457 252.567,164.338 252.344 C 164.219 252.120,164.054 251.858,163.972 251.760 C 163.889 251.663,163.403 250.915,162.891 250.098 C 160.739 246.664,159.354 244.990,157.890 244.052 L 156.864 243.394 157.867 243.186 C 158.420 243.072,158.994 242.919,159.144 242.845 C 159.294 242.771,159.780 242.548,160.224 242.349 C 165.769 239.874,165.287 231.035,159.500 229.082 L 158.083 228.604 150.208 228.539 L 142.333 228.474 142.333 242.070 M210.223 228.792 C 210.130 229.064,209.645 230.332,208.487 233.333 C 208.222 234.021,207.664 235.483,207.248 236.583 C 206.831 237.683,206.419 238.733,206.332 238.917 C 206.245 239.100,205.981 239.775,205.744 240.417 C 204.604 243.511,204.309 244.288,204.100 244.750 C 203.975 245.025,203.780 245.550,203.667 245.917 C 203.553 246.283,203.360 246.808,203.238 247.083 C 203.010 247.595,201.626 251.183,201.309 252.083 C 201.212 252.358,201.066 252.733,200.985 252.917 C 200.777 253.384,200.000 255.491,200.000 255.587 C 200.000 255.631,200.882 255.667,201.959 255.667 L 203.918 255.667 204.282 254.708 C 204.481 254.181,204.988 252.775,205.408 251.583 C 205.828 250.392,206.240 249.295,206.324 249.147 C 206.407 248.999,206.559 248.568,206.661 248.189 L 206.846 247.500 212.480 247.500 L 218.114 247.500 218.324 248.208 C 218.505 248.817,219.663 251.908,220.088 252.917 C 220.166 253.100,220.421 253.775,220.656 254.417 L 221.083 255.583 223.208 255.630 C 224.377 255.656,225.333 255.618,225.333 255.547 C 225.333 255.395,224.741 253.807,224.414 253.083 C 224.289 252.808,223.580 251.083,222.838 249.250 C 222.096 247.417,221.345 245.579,221.170 245.167 C 220.176 242.823,219.500 241.154,219.500 241.041 C 219.500 240.970,219.361 240.650,219.191 240.331 C 219.021 240.011,218.786 239.450,218.667 239.083 C 218.549 238.717,218.249 237.967,218.000 237.417 C 217.751 236.867,217.452 236.117,217.336 235.750 C 217.219 235.383,217.062 235.006,216.988 234.911 C 216.913 234.816,216.652 234.178,216.407 233.494 C 216.162 232.810,215.905 232.175,215.836 232.083 C 215.767 231.992,215.557 231.504,215.369 231.000 C 215.181 230.496,214.868 229.727,214.672 229.292 L 214.318 228.500 212.320 228.500 C 210.567 228.500,210.311 228.536,210.223 228.792 M278.333 242.083 L 278.333 255.667 288.500 255.667 L 298.667 255.667 298.667 254.000 L 298.667 252.333 290.417 252.333 L 282.167 252.333 282.167 247.750 L 282.167 243.167 289.583 243.167 L 297.000 243.167 297.000 241.583 L 297.000 240.000 289.583 240.000 L 282.167 240.000 282.167 235.917 L 282.167 231.833 290.083 231.833 L 298.000 231.833 298.000 230.167 L 298.000 228.500 288.167 228.500 L 278.333 228.500 278.333 242.083 M303.333 242.079 L 303.333 255.667 305.082 255.667 L 306.831 255.667 306.874 244.458 L 306.917 233.250 307.473 234.917 C 307.779 235.833,308.092 236.733,308.169 236.917 C 308.245 237.100,308.729 238.525,309.243 240.083 C 309.758 241.642,310.246 243.067,310.327 243.250 C 310.409 243.433,310.637 244.108,310.833 244.750 C 311.030 245.392,311.259 246.067,311.342 246.250 C 311.507 246.613,313.216 251.650,314.014 254.125 L 314.512 255.667 316.222 255.667 L 317.933 255.667 318.117 255.125 C 319.298 251.639,320.902 247.013,321.020 246.750 C 321.103 246.567,321.345 245.892,321.559 245.250 C 322.069 243.720,323.941 238.296,324.858 235.688 L 325.583 233.627 325.626 244.647 L 325.669 255.667 327.418 255.667 L 329.167 255.667 329.167 242.083 L 329.167 228.500 326.674 228.500 L 324.182 228.500 323.679 230.042 C 323.403 230.890,322.680 233.008,322.073 234.750 C 321.466 236.492,320.750 238.592,320.482 239.417 C 320.214 240.242,319.950 241.029,319.894 241.167 C 319.596 241.905,317.735 247.306,317.309 248.667 C 316.486 251.299,316.449 251.347,316.104 250.206 C 315.945 249.680,315.748 249.100,315.665 248.917 C 315.583 248.733,315.328 247.983,315.099 247.250 C 314.640 245.780,313.697 242.892,313.547 242.500 C 313.495 242.362,312.421 239.175,311.162 235.417 L 308.873 228.583 306.103 228.538 L 303.333 228.492 303.333 242.079 M334.500 242.071 L 334.500 255.667 340.649 255.667 C 348.732 255.667,350.735 255.307,352.642 253.512 C 356.417 249.960,355.783 243.838,351.416 241.667 L 350.320 241.121 350.820 240.817 C 354.182 238.772,354.677 232.661,351.652 230.538 C 351.486 230.421,351.251 230.227,351.130 230.106 C 349.865 228.841,348.460 228.622,341.125 228.545 L 334.500 228.476 334.500 242.071 M359.667 242.083 L 359.667 255.667 368.167 255.667 L 376.667 255.667 376.667 254.000 L 376.667 252.333 370.083 252.333 L 363.500 252.333 363.500 240.417 L 363.500 228.500 361.583 228.500 L 359.667 228.500 359.667 242.083 M375.167 228.616 C 375.167 228.680,376.573 230.826,378.292 233.384 C 380.010 235.943,381.842 238.685,382.362 239.477 C 382.882 240.269,383.370 240.992,383.448 241.083 C 383.525 241.175,384.019 241.917,384.544 242.733 L 385.500 244.216 385.500 249.941 L 385.500 255.667 387.417 255.667 L 389.333 255.667 389.333 249.870 C 389.333 243.904,389.351 243.726,389.993 243.167 C 390.046 243.121,390.518 242.446,391.043 241.667 C 391.927 240.355,392.681 239.265,393.868 237.583 C 394.126 237.217,394.768 236.279,395.294 235.500 C 395.820 234.721,396.295 234.046,396.350 234.000 C 396.405 233.954,396.630 233.642,396.850 233.306 C 397.891 231.716,399.275 229.704,399.619 229.279 C 400.219 228.537,400.135 228.500,397.839 228.500 C 395.768 228.500,395.670 228.516,395.481 228.875 C 395.372 229.081,395.233 229.287,395.172 229.333 C 395.111 229.379,394.796 229.829,394.472 230.333 C 394.147 230.838,392.872 232.787,391.638 234.667 C 389.392 238.087,389.144 238.478,388.167 240.143 L 387.643 241.037 386.613 239.335 C 386.047 238.399,385.508 237.504,385.417 237.347 C 385.325 237.190,384.978 236.654,384.645 236.156 C 384.312 235.658,383.307 234.125,382.412 232.750 C 381.516 231.375,380.520 229.856,380.198 229.375 L 379.611 228.500 377.389 228.500 C 376.167 228.500,375.167 228.552,375.167 228.616 M100.173 231.740 C 107.174 233.586,109.360 245.492,103.632 250.578 C 98.705 254.954,90.789 252.593,89.123 246.250 C 86.717 237.089,92.359 229.680,100.173 231.740 M156.576 231.846 C 160.176 232.512,161.471 236.425,158.914 238.910 C 157.652 240.137,157.236 240.213,151.292 240.293 L 146.167 240.362 146.167 236.014 L 146.167 231.667 150.886 231.667 C 153.545 231.667,156.029 231.745,156.576 231.846 M214.241 237.583 C 214.479 238.225,214.776 238.975,214.900 239.250 C 215.025 239.525,215.258 240.162,215.419 240.667 C 215.579 241.171,215.765 241.658,215.832 241.750 C 215.899 241.842,216.146 242.498,216.382 243.208 L 216.810 244.500 212.394 244.500 L 207.978 244.500 208.091 244.125 C 208.153 243.919,208.307 243.525,208.433 243.250 C 208.558 242.975,208.847 242.225,209.073 241.583 C 209.979 239.017,210.514 237.567,210.672 237.250 C 210.982 236.628,211.977 233.350,212.096 232.559 L 212.214 231.772 213.011 234.094 C 213.449 235.372,214.003 236.942,214.241 237.583 M347.917 232.417 C 350.851 233.884,350.807 237.937,347.842 239.309 C 346.938 239.728,346.819 239.739,342.625 239.800 L 338.333 239.862 338.333 235.831 L 338.333 231.801 342.625 231.859 L 346.917 231.917 347.917 232.417 M38.713 235.833 C 38.769 235.971,39.200 237.133,39.670 238.417 C 40.461 240.574,40.694 241.190,41.641 243.625 L 41.982 244.500 37.494 244.500 L 33.007 244.500 33.191 244.042 C 33.292 243.790,33.440 243.433,33.520 243.250 C 33.600 243.067,33.842 242.429,34.059 241.833 C 34.275 241.237,34.806 239.813,35.238 238.667 C 36.119 236.329,37.000 233.718,37.001 233.436 C 37.001 233.334,37.086 232.950,37.189 232.583 L 37.376 231.917 37.994 233.750 C 38.334 234.758,38.658 235.696,38.713 235.833 M348.068 243.491 C 351.761 244.658,352.315 249.928,348.920 251.589 C 347.812 252.131,345.969 252.309,341.292 252.324 L 338.333 252.333 338.333 247.734 L 338.333 243.135 342.875 243.210 C 345.813 243.259,347.647 243.358,348.068 243.491 " stroke="none" fill="#040404" fill-rule="evenodd"></path><path id="path3" d="M88.875 173.453 C 89.127 173.491,89.540 173.491,89.792 173.453 C 90.044 173.415,89.837 173.383,89.333 173.383 C 88.829 173.383,88.623 173.415,88.875 173.453 M93.875 173.615 C 94.035 173.657,94.298 173.657,94.458 173.615 C 94.619 173.573,94.487 173.539,94.167 173.539 C 93.846 173.539,93.715 173.573,93.875 173.615 M103.208 173.615 C 103.369 173.657,103.631 173.657,103.792 173.615 C 103.952 173.573,103.821 173.539,103.500 173.539 C 103.179 173.539,103.048 173.573,103.208 173.615 " stroke="none" fill="#9c80b0" fill-rule="evenodd"></path><path id="path4" d="M88.875 173.453 C 89.127 173.491,89.540 173.491,89.792 173.453 C 90.044 173.415,89.837 173.383,89.333 173.383 C 88.829 173.383,88.623 173.415,88.875 173.453 M93.875 173.615 C 94.035 173.657,94.298 173.657,94.458 173.615 C 94.619 173.573,94.487 173.539,94.167 173.539 C 93.846 173.539,93.715 173.573,93.875 173.615 M103.208 173.615 C 103.369 173.657,103.631 173.657,103.792 173.615 C 103.952 173.573,103.821 173.539,103.500 173.539 C 103.179 173.539,103.048 173.573,103.208 173.615 " stroke="none" fill="#9c80b0" fill-rule="evenodd"></path><path id="path0" d="M9.586 53.770 C 7.676 59.750,6.850 62.635,5.681 67.417 C 5.300 68.975,4.920 70.475,4.837 70.750 C 4.754 71.025,4.494 72.262,4.260 73.500 C 4.026 74.737,3.758 76.050,3.664 76.417 C 3.569 76.783,3.309 78.246,3.085 79.667 C 2.862 81.087,2.604 82.688,2.512 83.223 C 2.370 84.058,1.878 88.616,1.574 91.917 C 1.265 95.284,1.252 105.448,1.555 107.865 C 1.597 108.204,1.681 108.954,1.741 109.532 C 2.967 121.277,6.507 131.665,12.095 139.917 C 14.186 143.003,15.444 144.591,17.971 147.333 C 21.766 151.452,25.855 154.786,31.500 158.366 C 33.463 159.611,37.588 161.815,39.892 162.849 C 40.731 163.225,41.721 163.671,42.093 163.839 C 42.959 164.232,46.627 165.667,46.763 165.667 C 46.820 165.667,47.103 165.774,47.391 165.905 C 47.855 166.116,50.392 166.949,53.667 167.965 C 54.612 168.258,59.622 169.510,62.833 170.256 C 63.429 170.394,65.004 170.695,66.333 170.924 C 67.662 171.153,69.162 171.411,69.667 171.499 C 70.545 171.652,74.539 172.189,77.162 172.508 C 84.235 173.366,99.250 173.837,107.526 173.460 C 111.857 173.262,116.239 173.001,119.583 172.742 C 126.535 172.202,137.465 170.880,144.833 169.687 C 148.217 169.140,153.509 168.230,154.167 168.083 C 154.396 168.032,155.746 167.768,157.167 167.497 C 160.879 166.788,168.712 165.168,169.667 164.912 C 169.804 164.876,170.892 164.618,172.083 164.340 C 176.712 163.261,179.160 162.671,181.083 162.170 C 182.183 161.884,183.908 161.435,184.917 161.173 C 191.780 159.390,199.898 157.051,207.750 154.595 C 211.701 153.359,223.178 149.496,226.333 148.340 C 227.112 148.054,228.350 147.603,229.083 147.336 C 229.817 147.070,231.354 146.505,232.500 146.082 C 238.511 143.862,244.903 141.637,247.833 140.744 C 248.521 140.535,250.058 140.065,251.250 139.700 C 261.960 136.420,273.345 133.850,283.500 132.420 C 285.104 132.194,286.942 131.932,287.583 131.838 C 289.158 131.607,291.440 131.378,294.250 131.170 C 295.533 131.075,296.958 130.959,297.417 130.913 C 305.860 130.070,320.048 130.644,330.250 132.241 C 336.637 133.241,347.442 135.897,350.250 137.158 C 350.433 137.240,351.146 137.495,351.833 137.725 C 361.673 141.012,372.848 147.122,381.750 154.083 C 388.542 159.395,396.263 167.468,399.417 172.557 C 400.120 173.693,400.176 172.904,399.509 171.250 C 399.435 171.067,398.848 169.304,398.204 167.333 C 397.143 164.083,395.555 159.593,395.170 158.750 C 395.086 158.567,394.669 157.517,394.242 156.417 C 393.816 155.317,393.287 154.021,393.067 153.537 C 392.847 153.053,392.667 152.604,392.667 152.539 C 392.667 152.474,392.483 152.045,392.258 151.586 C 392.033 151.126,391.462 149.887,390.989 148.833 C 389.888 146.376,387.308 141.208,386.164 139.167 C 385.676 138.296,385.162 137.358,385.022 137.083 C 384.882 136.808,384.704 136.508,384.627 136.417 C 384.549 136.325,384.139 135.650,383.715 134.917 C 383.291 134.183,382.655 133.133,382.301 132.583 C 381.947 132.033,381.588 131.471,381.503 131.333 C 381.252 130.927,379.853 128.852,378.864 127.417 C 378.010 126.178,374.685 121.780,373.887 120.833 C 370.305 116.584,366.361 112.469,363.250 109.734 C 362.333 108.928,361.496 108.190,361.390 108.093 C 360.980 107.720,357.311 104.850,356.317 104.124 C 355.258 103.351,352.598 101.530,351.884 101.089 C 349.111 99.375,347.352 98.349,345.670 97.463 C 344.618 96.909,343.643 96.392,343.504 96.314 C 343.364 96.236,342.575 95.865,341.750 95.490 C 340.925 95.114,340.025 94.694,339.750 94.556 C 339.165 94.262,337.208 93.466,335.667 92.894 C 335.071 92.673,334.433 92.418,334.250 92.328 C 333.692 92.052,329.203 90.579,327.167 90.003 C 326.112 89.706,324.762 89.322,324.167 89.152 C 323.571 88.982,322.333 88.686,321.417 88.495 C 320.500 88.304,319.525 88.079,319.250 87.995 C 317.129 87.349,308.655 86.163,301.750 85.547 C 295.743 85.010,278.561 85.183,272.250 85.843 C 271.333 85.939,268.633 86.200,266.250 86.423 C 263.867 86.647,261.749 86.863,261.545 86.904 C 261.340 86.946,259.578 87.175,257.628 87.413 C 255.678 87.652,253.963 87.883,253.816 87.927 C 253.668 87.971,252.018 88.236,250.149 88.515 C 248.280 88.794,246.600 89.049,246.417 89.081 C 246.233 89.113,244.733 89.372,243.083 89.657 C 236.720 90.756,231.777 91.685,226.667 92.743 C 218.914 94.348,216.067 94.957,211.417 96.003 C 210.133 96.292,207.958 96.780,206.583 97.087 C 205.208 97.395,203.090 97.877,201.875 98.157 C 200.660 98.437,198.710 98.886,197.542 99.154 C 196.373 99.421,194.254 99.911,192.833 100.241 C 191.412 100.572,189.313 101.058,188.167 101.321 C 187.021 101.584,184.883 102.078,183.417 102.418 C 177.119 103.880,168.732 105.773,164.500 106.688 C 148.295 110.192,139.254 111.852,125.583 113.834 C 121.672 114.401,113.492 115.225,109.167 115.489 C 107.563 115.586,104.999 115.752,103.470 115.856 C 101.030 116.023,93.456 115.965,90.417 115.756 C 85.358 115.408,76.496 114.238,75.181 113.745 C 75.051 113.696,74.076 113.470,73.014 113.242 C 70.862 112.780,69.928 112.520,66.127 111.319 C 64.684 110.863,63.477 110.511,63.444 110.536 C 63.411 110.562,63.279 110.499,63.151 110.397 C 63.022 110.294,62.617 110.115,62.250 110.000 C 61.591 109.792,59.201 108.829,57.583 108.120 C 52.855 106.048,45.669 101.865,42.655 99.430 C 42.419 99.239,41.976 98.896,41.670 98.667 C 40.337 97.669,37.463 95.274,36.479 94.340 C 31.259 89.391,27.663 85.191,23.988 79.750 C 22.676 77.808,21.167 75.379,21.167 75.210 C 21.167 75.155,21.065 74.991,20.941 74.846 C 20.503 74.337,17.547 68.659,16.639 66.583 C 14.252 61.124,12.485 56.023,11.559 51.917 C 11.332 50.908,11.081 50.018,11.002 49.937 C 10.920 49.854,10.305 51.521,9.586 53.770 " stroke="none" fill="#a4acac" fill-rule="evenodd"></path><path id="path1" d="M168.417 0.168 C 167.225 0.245,165.537 0.391,164.667 0.494 C 163.796 0.596,161.771 0.827,160.167 1.007 C 157.311 1.328,156.661 1.430,152.250 2.252 C 147.628 3.113,139.545 5.128,137.917 5.824 C 137.733 5.903,136.308 6.398,134.750 6.926 C 133.192 7.454,131.842 7.936,131.750 7.997 C 131.658 8.059,131.208 8.245,130.750 8.410 C 130.292 8.576,129.521 8.888,129.037 9.105 C 128.553 9.322,128.112 9.500,128.058 9.500 C 127.911 9.500,125.540 10.569,123.167 11.705 C 119.997 13.222,115.520 15.698,114.583 16.452 C 114.492 16.526,114.192 16.730,113.917 16.906 C 113.448 17.207,111.021 19.088,110.067 19.889 C 107.541 22.013,104.291 25.282,102.500 27.501 C 102.179 27.898,101.727 28.454,101.495 28.737 C 98.015 32.970,95.054 38.976,94.255 43.423 C 92.831 51.350,95.927 60.147,101.881 65.092 C 102.176 65.337,102.717 65.810,103.084 66.143 C 104.284 67.235,105.645 68.284,108.083 69.998 C 108.358 70.191,109.035 70.627,109.588 70.966 C 110.140 71.306,110.740 71.676,110.921 71.790 C 111.102 71.904,111.625 72.201,112.083 72.451 C 112.542 72.700,113.047 72.982,113.207 73.077 C 118.300 76.114,125.784 78.626,133.583 79.916 C 134.958 80.144,136.458 80.406,136.917 80.498 C 142.323 81.583,159.214 82.273,169.667 81.835 C 175.675 81.583,187.424 80.810,188.745 80.580 C 189.017 80.533,191.079 80.307,193.328 80.079 C 195.577 79.851,197.611 79.624,197.847 79.575 C 198.084 79.526,199.922 79.269,201.931 79.003 C 206.260 78.432,211.946 77.577,213.000 77.339 C 213.412 77.246,214.950 76.974,216.417 76.735 C 224.997 75.334,230.215 74.766,241.833 73.967 C 245.412 73.720,265.020 73.717,268.667 73.962 C 278.194 74.602,286.447 75.400,291.333 76.153 C 298.908 77.320,305.320 78.572,310.500 79.896 C 314.440 80.903,319.750 82.413,320.169 82.646 C 320.307 82.723,320.870 82.917,321.419 83.075 C 322.594 83.416,327.883 85.374,329.083 85.913 C 329.542 86.119,330.104 86.346,330.333 86.417 C 330.563 86.488,331.139 86.723,331.614 86.940 C 332.090 87.156,332.515 87.333,332.560 87.333 C 332.605 87.333,333.229 87.604,333.946 87.936 C 334.663 88.267,335.986 88.869,336.886 89.274 C 339.829 90.596,347.306 94.446,349.470 95.752 C 349.624 95.845,350.275 96.216,350.917 96.577 C 351.558 96.938,352.473 97.481,352.950 97.783 C 353.427 98.086,353.860 98.333,353.911 98.333 C 353.963 98.333,354.398 98.585,354.878 98.893 C 355.357 99.201,356.313 99.814,357.000 100.256 C 359.216 101.678,362.878 104.127,364.333 105.160 C 365.113 105.713,365.938 106.296,366.167 106.455 C 366.856 106.935,371.214 110.247,371.726 110.680 C 371.989 110.902,372.497 111.338,372.856 111.648 C 374.652 113.202,373.603 111.823,367.494 104.598 C 366.897 103.892,365.962 102.831,365.617 102.467 C 365.452 102.293,364.782 101.536,364.127 100.784 C 363.473 100.032,362.586 99.042,362.157 98.583 C 361.728 98.125,360.415 96.700,359.239 95.417 C 356.098 91.988,355.672 91.537,352.750 88.526 C 347.150 82.755,341.904 77.609,336.417 72.505 C 335.592 71.738,334.504 70.724,334.000 70.254 C 333.496 69.783,332.408 68.806,331.583 68.084 C 330.758 67.361,330.046 66.719,330.000 66.658 C 329.913 66.541,326.298 63.398,324.931 62.250 C 324.494 61.883,323.931 61.396,323.681 61.167 C 323.430 60.938,322.904 60.487,322.513 60.167 C 322.121 59.846,321.674 59.471,321.519 59.333 C 321.364 59.196,320.680 58.633,319.998 58.083 C 318.543 56.910,318.470 56.850,316.813 55.473 C 315.332 54.242,312.391 51.901,310.822 50.706 C 309.379 49.605,304.134 45.660,303.639 45.303 C 303.425 45.149,302.725 44.646,302.083 44.186 C 301.442 43.726,300.836 43.280,300.737 43.195 C 300.638 43.110,300.263 42.846,299.904 42.608 C 299.281 42.197,296.846 40.486,296.036 39.891 C 295.827 39.737,294.364 38.762,292.786 37.724 C 289.262 35.405,289.614 35.636,288.417 34.867 C 287.867 34.514,287.004 33.959,286.500 33.635 C 285.996 33.310,285.358 32.920,285.083 32.766 C 284.808 32.613,284.267 32.284,283.881 32.036 C 283.187 31.589,279.061 29.101,278.417 28.741 C 275.881 27.324,274.990 26.821,274.500 26.531 C 274.179 26.341,273.054 25.727,272.000 25.168 C 270.946 24.608,269.971 24.081,269.833 23.996 C 268.878 23.409,259.519 18.853,257.000 17.749 C 256.221 17.408,255.011 16.875,254.312 16.565 C 253.613 16.254,252.994 16.000,252.936 16.000 C 252.877 16.000,252.512 15.853,252.123 15.673 C 251.353 15.317,249.373 14.527,247.667 13.894 C 247.071 13.673,246.433 13.418,246.250 13.328 C 246.067 13.237,244.642 12.722,243.083 12.184 C 241.525 11.645,240.137 11.160,240.000 11.105 C 238.993 10.701,229.900 7.876,227.583 7.247 C 220.045 5.201,215.733 4.183,210.333 3.172 C 208.912 2.907,207.637 2.648,207.500 2.598 C 207.362 2.548,205.975 2.320,204.417 2.092 C 202.858 1.864,201.132 1.601,200.580 1.508 C 199.718 1.362,195.378 0.887,189.667 0.314 C 187.567 0.103,171.173 -0.010,168.417 0.168 " stroke="none" fill="#e41c24" fill-rule="evenodd"></path><path id="path2" d="M8.994 228.419 C 4.932 229.405,2.917 231.780,2.917 235.580 C 2.917 239.173,4.755 241.295,8.833 242.408 C 9.429 242.570,10.067 242.769,10.250 242.848 C 10.433 242.928,11.371 243.173,12.333 243.393 C 18.631 244.831,20.401 246.354,19.396 249.466 C 18.271 252.949,11.189 253.842,7.427 250.975 C 6.515 250.280,5.696 248.894,5.425 247.583 L 5.217 246.583 3.484 246.644 C 1.387 246.717,1.575 246.518,1.883 248.341 C 2.475 251.856,4.625 254.241,8.293 255.452 C 11.418 256.484,18.468 255.908,19.493 254.536 C 19.543 254.470,19.913 254.192,20.316 253.918 C 22.525 252.418,23.775 249.082,23.157 246.333 C 22.374 242.855,19.974 241.284,12.833 239.577 C 8.193 238.468,6.693 237.636,6.420 236.019 C 5.962 233.306,7.943 231.699,11.935 231.546 C 16.081 231.388,18.360 232.809,18.782 235.815 L 18.885 236.547 20.629 236.449 C 22.728 236.330,22.613 236.429,22.361 234.959 C 21.792 231.639,19.284 229.169,15.719 228.413 C 14.276 228.107,10.261 228.111,8.994 228.419 M94.417 228.417 C 91.912 228.979,89.393 230.525,87.746 232.510 C 83.893 237.154,83.818 246.500,87.596 251.339 C 93.310 258.658,105.951 257.201,109.326 248.833 C 109.529 248.329,109.756 247.800,109.829 247.657 C 110.820 245.735,110.825 237.883,109.837 236.583 C 109.767 236.492,109.617 236.117,109.504 235.750 C 107.858 230.418,100.797 226.987,94.417 228.417 M175.640 228.407 C 174.011 228.765,172.570 229.497,171.515 230.505 C 168.602 233.285,168.621 238.137,171.553 240.511 C 172.994 241.677,174.384 242.215,179.083 243.426 C 183.071 244.452,183.342 244.542,184.367 245.162 C 187.166 246.854,186.750 250.619,183.621 251.910 C 183.234 252.070,182.767 252.283,182.583 252.383 C 182.400 252.484,181.294 252.597,180.125 252.636 C 175.576 252.786,172.677 250.928,171.970 247.408 L 171.779 246.458 170.782 246.562 C 170.233 246.620,169.458 246.667,169.059 246.667 L 168.333 246.667 168.333 247.382 C 168.333 251.503,171.747 255.015,176.556 255.843 C 184.050 257.133,189.750 253.709,189.750 247.917 C 189.750 243.509,187.475 241.475,180.823 239.935 C 174.126 238.384,173.083 237.763,173.083 235.329 C 173.083 232.681,174.794 231.583,178.917 231.583 C 183.000 231.583,184.832 232.797,185.400 235.875 L 185.515 236.500 186.484 236.500 C 187.017 236.500,187.801 236.452,188.227 236.394 L 189.000 236.288 189.000 235.591 C 189.000 230.431,182.458 226.913,175.640 228.407 M234.250 228.414 C 230.216 229.307,228.083 231.785,228.083 235.583 C 228.083 239.097,229.696 241.048,233.595 242.253 C 234.413 242.506,235.233 242.773,235.417 242.846 C 235.600 242.919,236.537 243.166,237.500 243.394 C 243.248 244.756,244.607 245.606,244.795 247.955 C 245.028 250.862,242.595 252.583,238.250 252.583 C 233.796 252.583,231.128 250.767,230.533 247.327 L 230.404 246.583 228.660 246.644 C 226.565 246.717,226.770 246.528,227.009 248.160 C 227.725 253.058,231.375 255.779,237.468 255.959 C 244.652 256.171,248.850 252.838,248.436 247.250 C 248.157 243.481,245.591 241.385,239.485 239.941 C 232.738 238.345,231.583 237.673,231.583 235.340 C 231.583 232.713,233.832 231.395,238.076 231.535 C 241.623 231.652,243.574 233.060,243.946 235.773 L 244.052 236.547 245.795 236.449 C 247.895 236.330,247.779 236.430,247.531 234.953 C 246.676 229.851,240.811 226.963,234.250 228.414 M259.255 228.435 C 255.255 229.402,253.250 231.787,253.250 235.580 C 253.250 239.916,255.216 241.564,262.500 243.335 C 268.164 244.712,269.572 245.556,269.929 247.790 C 270.637 252.216,262.820 254.390,257.947 251.122 C 256.956 250.457,256.045 248.986,255.756 247.584 L 255.551 246.583 253.817 246.644 C 251.720 246.717,251.908 246.518,252.216 248.341 C 252.813 251.881,254.932 254.232,258.626 255.452 C 261.752 256.484,268.801 255.908,269.827 254.536 C 269.876 254.470,270.246 254.192,270.650 253.918 C 272.859 252.418,274.108 249.082,273.490 246.333 C 272.708 242.855,270.307 241.284,263.167 239.577 C 258.526 238.468,257.026 237.636,256.753 236.019 C 256.295 233.306,258.277 231.699,262.268 231.546 C 266.445 231.387,269.167 233.196,269.167 236.131 L 269.167 236.550 270.936 236.450 C 273.065 236.329,272.946 236.430,272.694 234.959 C 272.125 231.639,269.618 229.169,266.052 228.413 C 264.565 228.098,260.596 228.111,259.255 228.435 M35.005 229.625 C 34.791 230.244,34.565 230.825,34.503 230.917 C 34.440 231.008,34.220 231.571,34.012 232.167 C 33.593 233.367,32.564 236.064,32.327 236.583 C 32.243 236.767,31.994 237.404,31.774 238.000 C 31.553 238.596,31.137 239.721,30.849 240.500 C 30.560 241.279,30.252 242.067,30.163 242.250 C 30.074 242.433,29.821 243.071,29.601 243.667 C 29.009 245.268,28.273 247.195,27.501 249.167 C 27.124 250.129,26.669 251.329,26.491 251.833 C 26.312 252.338,26.092 252.900,26.000 253.083 C 25.791 253.502,25.167 255.336,25.167 255.531 C 25.167 255.612,26.048 255.656,27.124 255.630 L 29.082 255.583 29.712 253.833 C 30.059 252.871,30.704 251.071,31.146 249.833 L 31.950 247.583 37.532 247.539 L 43.114 247.496 43.828 249.373 C 44.220 250.405,44.860 252.075,45.249 253.083 C 45.639 254.092,46.009 255.085,46.073 255.292 C 46.185 255.652,50.036 255.908,50.367 255.577 C 50.457 255.487,49.911 253.980,49.343 252.750 C 49.173 252.383,48.979 251.896,48.911 251.667 C 48.843 251.438,48.584 250.800,48.334 250.250 C 48.085 249.700,47.787 248.950,47.672 248.583 C 47.557 248.217,47.370 247.767,47.257 247.583 C 47.143 247.400,46.953 246.950,46.835 246.583 C 46.716 246.217,46.405 245.446,46.143 244.871 C 45.881 244.296,45.667 243.780,45.667 243.725 C 45.667 243.670,45.483 243.203,45.259 242.688 C 45.034 242.172,44.364 240.550,43.770 239.083 C 41.940 234.566,39.987 229.781,39.705 229.125 L 39.436 228.500 37.415 228.500 L 35.395 228.500 35.005 229.625 M47.829 229.375 C 48.001 229.856,48.449 231.037,48.827 232.000 C 49.204 232.963,49.666 234.162,49.854 234.667 C 50.042 235.171,50.294 235.808,50.413 236.083 C 50.532 236.358,50.801 237.071,51.010 237.667 C 51.219 238.262,51.442 238.825,51.506 238.917 C 51.570 239.008,51.789 239.571,51.992 240.167 C 52.195 240.762,52.420 241.325,52.492 241.417 C 52.564 241.508,52.792 242.108,53.000 242.750 C 53.208 243.392,53.431 243.992,53.495 244.083 C 53.560 244.175,53.786 244.737,53.997 245.333 C 54.209 245.929,54.479 246.642,54.598 246.917 C 54.717 247.192,55.199 248.429,55.670 249.667 C 57.221 253.745,57.677 254.912,57.868 255.292 C 58.046 255.647,58.154 255.667,59.917 255.667 C 62.056 255.667,61.815 255.851,62.647 253.583 C 62.916 252.850,63.673 250.900,64.329 249.250 C 64.986 247.600,65.669 245.838,65.848 245.333 C 66.027 244.829,66.312 244.117,66.480 243.750 C 66.649 243.383,66.883 242.783,66.999 242.417 C 67.115 242.050,67.263 241.675,67.327 241.583 C 67.391 241.492,67.615 240.929,67.823 240.333 C 68.032 239.737,68.302 239.025,68.422 238.750 C 68.542 238.475,68.903 237.575,69.224 236.750 C 69.545 235.925,70.376 233.803,71.070 232.035 C 71.765 230.266,72.333 228.747,72.333 228.660 C 72.333 228.567,71.531 228.500,70.429 228.500 L 68.524 228.500 68.201 229.375 C 68.023 229.856,67.783 230.550,67.667 230.917 C 67.551 231.283,67.402 231.658,67.335 231.750 C 67.268 231.842,67.020 232.479,66.784 233.167 C 66.291 234.604,65.143 237.729,63.661 241.667 C 63.368 242.446,62.883 243.758,62.582 244.583 C 62.282 245.408,61.797 246.721,61.504 247.500 C 61.211 248.279,60.731 249.667,60.437 250.583 L 59.901 252.250 59.672 251.417 C 59.434 250.552,55.940 240.504,55.673 239.917 C 55.590 239.733,55.362 239.096,55.167 238.500 C 54.971 237.904,54.743 237.267,54.660 237.083 C 54.510 236.754,51.882 229.356,51.714 228.792 C 51.638 228.534,51.386 228.500,49.573 228.500 L 47.518 228.500 47.829 229.375 M76.000 242.083 L 76.000 255.667 77.917 255.667 L 79.833 255.667 79.833 242.083 L 79.833 228.500 77.917 228.500 L 76.000 228.500 76.000 242.083 M115.167 236.708 C 115.167 248.738,115.468 250.816,117.543 253.109 C 120.943 256.867,129.696 257.121,133.640 253.576 C 136.193 251.280,136.391 250.192,136.456 238.125 L 136.508 228.500 134.683 228.500 L 132.858 228.500 132.784 237.708 C 132.704 247.564,132.668 248.014,131.838 249.656 C 129.639 254.002,121.250 253.443,119.496 248.833 L 119.083 247.750 119.035 238.125 L 118.987 228.500 117.077 228.500 L 115.167 228.500 115.167 236.708 M142.333 242.070 L 142.333 255.667 144.250 255.667 L 146.167 255.667 146.167 249.667 L 146.167 243.667 148.910 243.667 C 152.783 243.667,154.149 244.287,155.884 246.833 C 156.165 247.246,156.437 247.621,156.489 247.667 C 156.632 247.793,157.879 249.697,160.990 254.542 L 161.713 255.667 164.023 255.667 C 165.294 255.667,166.333 255.619,166.333 255.560 C 166.333 255.501,165.933 254.845,165.444 254.102 C 164.955 253.358,164.457 252.567,164.338 252.344 C 164.219 252.120,164.054 251.858,163.972 251.760 C 163.889 251.663,163.403 250.915,162.891 250.098 C 160.739 246.664,159.354 244.990,157.890 244.052 L 156.864 243.394 157.867 243.186 C 158.420 243.072,158.994 242.919,159.144 242.845 C 159.294 242.771,159.780 242.548,160.224 242.349 C 165.769 239.874,165.287 231.035,159.500 229.082 L 158.083 228.604 150.208 228.539 L 142.333 228.474 142.333 242.070 M210.223 228.792 C 210.130 229.064,209.645 230.332,208.487 233.333 C 208.222 234.021,207.664 235.483,207.248 236.583 C 206.831 237.683,206.419 238.733,206.332 238.917 C 206.245 239.100,205.981 239.775,205.744 240.417 C 204.604 243.511,204.309 244.288,204.100 244.750 C 203.975 245.025,203.780 245.550,203.667 245.917 C 203.553 246.283,203.360 246.808,203.238 247.083 C 203.010 247.595,201.626 251.183,201.309 252.083 C 201.212 252.358,201.066 252.733,200.985 252.917 C 200.777 253.384,200.000 255.491,200.000 255.587 C 200.000 255.631,200.882 255.667,201.959 255.667 L 203.918 255.667 204.282 254.708 C 204.481 254.181,204.988 252.775,205.408 251.583 C 205.828 250.392,206.240 249.295,206.324 249.147 C 206.407 248.999,206.559 248.568,206.661 248.189 L 206.846 247.500 212.480 247.500 L 218.114 247.500 218.324 248.208 C 218.505 248.817,219.663 251.908,220.088 252.917 C 220.166 253.100,220.421 253.775,220.656 254.417 L 221.083 255.583 223.208 255.630 C 224.377 255.656,225.333 255.618,225.333 255.547 C 225.333 255.395,224.741 253.807,224.414 253.083 C 224.289 252.808,223.580 251.083,222.838 249.250 C 222.096 247.417,221.345 245.579,221.170 245.167 C 220.176 242.823,219.500 241.154,219.500 241.041 C 219.500 240.970,219.361 240.650,219.191 240.331 C 219.021 240.011,218.786 239.450,218.667 239.083 C 218.549 238.717,218.249 237.967,218.000 237.417 C 217.751 236.867,217.452 236.117,217.336 235.750 C 217.219 235.383,217.062 235.006,216.988 234.911 C 216.913 234.816,216.652 234.178,216.407 233.494 C 216.162 232.810,215.905 232.175,215.836 232.083 C 215.767 231.992,215.557 231.504,215.369 231.000 C 215.181 230.496,214.868 229.727,214.672 229.292 L 214.318 228.500 212.320 228.500 C 210.567 228.500,210.311 228.536,210.223 228.792 M278.333 242.083 L 278.333 255.667 288.500 255.667 L 298.667 255.667 298.667 254.000 L 298.667 252.333 290.417 252.333 L 282.167 252.333 282.167 247.750 L 282.167 243.167 289.583 243.167 L 297.000 243.167 297.000 241.583 L 297.000 240.000 289.583 240.000 L 282.167 240.000 282.167 235.917 L 282.167 231.833 290.083 231.833 L 298.000 231.833 298.000 230.167 L 298.000 228.500 288.167 228.500 L 278.333 228.500 278.333 242.083 M303.333 242.079 L 303.333 255.667 305.082 255.667 L 306.831 255.667 306.874 244.458 L 306.917 233.250 307.473 234.917 C 307.779 235.833,308.092 236.733,308.169 236.917 C 308.245 237.100,308.729 238.525,309.243 240.083 C 309.758 241.642,310.246 243.067,310.327 243.250 C 310.409 243.433,310.637 244.108,310.833 244.750 C 311.030 245.392,311.259 246.067,311.342 246.250 C 311.507 246.613,313.216 251.650,314.014 254.125 L 314.512 255.667 316.222 255.667 L 317.933 255.667 318.117 255.125 C 319.298 251.639,320.902 247.013,321.020 246.750 C 321.103 246.567,321.345 245.892,321.559 245.250 C 322.069 243.720,323.941 238.296,324.858 235.688 L 325.583 233.627 325.626 244.647 L 325.669 255.667 327.418 255.667 L 329.167 255.667 329.167 242.083 L 329.167 228.500 326.674 228.500 L 324.182 228.500 323.679 230.042 C 323.403 230.890,322.680 233.008,322.073 234.750 C 321.466 236.492,320.750 238.592,320.482 239.417 C 320.214 240.242,319.950 241.029,319.894 241.167 C 319.596 241.905,317.735 247.306,317.309 248.667 C 316.486 251.299,316.449 251.347,316.104 250.206 C 315.945 249.680,315.748 249.100,315.665 248.917 C 315.583 248.733,315.328 247.983,315.099 247.250 C 314.640 245.780,313.697 242.892,313.547 242.500 C 313.495 242.362,312.421 239.175,311.162 235.417 L 308.873 228.583 306.103 228.538 L 303.333 228.492 303.333 242.079 M334.500 242.071 L 334.500 255.667 340.649 255.667 C 348.732 255.667,350.735 255.307,352.642 253.512 C 356.417 249.960,355.783 243.838,351.416 241.667 L 350.320 241.121 350.820 240.817 C 354.182 238.772,354.677 232.661,351.652 230.538 C 351.486 230.421,351.251 230.227,351.130 230.106 C 349.865 228.841,348.460 228.622,341.125 228.545 L 334.500 228.476 334.500 242.071 M359.667 242.083 L 359.667 255.667 368.167 255.667 L 376.667 255.667 376.667 254.000 L 376.667 252.333 370.083 252.333 L 363.500 252.333 363.500 240.417 L 363.500 228.500 361.583 228.500 L 359.667 228.500 359.667 242.083 M375.167 228.616 C 375.167 228.680,376.573 230.826,378.292 233.384 C 380.010 235.943,381.842 238.685,382.362 239.477 C 382.882 240.269,383.370 240.992,383.448 241.083 C 383.525 241.175,384.019 241.917,384.544 242.733 L 385.500 244.216 385.500 249.941 L 385.500 255.667 387.417 255.667 L 389.333 255.667 389.333 249.870 C 389.333 243.904,389.351 243.726,389.993 243.167 C 390.046 243.121,390.518 242.446,391.043 241.667 C 391.927 240.355,392.681 239.265,393.868 237.583 C 394.126 237.217,394.768 236.279,395.294 235.500 C 395.820 234.721,396.295 234.046,396.350 234.000 C 396.405 233.954,396.630 233.642,396.850 233.306 C 397.891 231.716,399.275 229.704,399.619 229.279 C 400.219 228.537,400.135 228.500,397.839 228.500 C 395.768 228.500,395.670 228.516,395.481 228.875 C 395.372 229.081,395.233 229.287,395.172 229.333 C 395.111 229.379,394.796 229.829,394.472 230.333 C 394.147 230.838,392.872 232.787,391.638 234.667 C 389.392 238.087,389.144 238.478,388.167 240.143 L 387.643 241.037 386.613 239.335 C 386.047 238.399,385.508 237.504,385.417 237.347 C 385.325 237.190,384.978 236.654,384.645 236.156 C 384.312 235.658,383.307 234.125,382.412 232.750 C 381.516 231.375,380.520 229.856,380.198 229.375 L 379.611 228.500 377.389 228.500 C 376.167 228.500,375.167 228.552,375.167 228.616 M100.173 231.740 C 107.174 233.586,109.360 245.492,103.632 250.578 C 98.705 254.954,90.789 252.593,89.123 246.250 C 86.717 237.089,92.359 229.680,100.173 231.740 M156.576 231.846 C 160.176 232.512,161.471 236.425,158.914 238.910 C 157.652 240.137,157.236 240.213,151.292 240.293 L 146.167 240.362 146.167 236.014 L 146.167 231.667 150.886 231.667 C 153.545 231.667,156.029 231.745,156.576 231.846 M214.241 237.583 C 214.479 238.225,214.776 238.975,214.900 239.250 C 215.025 239.525,215.258 240.162,215.419 240.667 C 215.579 241.171,215.765 241.658,215.832 241.750 C 215.899 241.842,216.146 242.498,216.382 243.208 L 216.810 244.500 212.394 244.500 L 207.978 244.500 208.091 244.125 C 208.153 243.919,208.307 243.525,208.433 243.250 C 208.558 242.975,208.847 242.225,209.073 241.583 C 209.979 239.017,210.514 237.567,210.672 237.250 C 210.982 236.628,211.977 233.350,212.096 232.559 L 212.214 231.772 213.011 234.094 C 213.449 235.372,214.003 236.942,214.241 237.583 M347.917 232.417 C 350.851 233.884,350.807 237.937,347.842 239.309 C 346.938 239.728,346.819 239.739,342.625 239.800 L 338.333 239.862 338.333 235.831 L 338.333 231.801 342.625 231.859 L 346.917 231.917 347.917 232.417 M38.713 235.833 C 38.769 235.971,39.200 237.133,39.670 238.417 C 40.461 240.574,40.694 241.190,41.641 243.625 L 41.982 244.500 37.494 244.500 L 33.007 244.500 33.191 244.042 C 33.292 243.790,33.440 243.433,33.520 243.250 C 33.600 243.067,33.842 242.429,34.059 241.833 C 34.275 241.237,34.806 239.813,35.238 238.667 C 36.119 236.329,37.000 233.718,37.001 233.436 C 37.001 233.334,37.086 232.950,37.189 232.583 L 37.376 231.917 37.994 233.750 C 38.334 234.758,38.658 235.696,38.713 235.833 M348.068 243.491 C 351.761 244.658,352.315 249.928,348.920 251.589 C 347.812 252.131,345.969 252.309,341.292 252.324 L 338.333 252.333 338.333 247.734 L 338.333 243.135 342.875 243.210 C 345.813 243.259,347.647 243.358,348.068 243.491 " stroke="none" fill="#040404" fill-rule="evenodd"></path><path id="path3" d="M88.875 173.453 C 89.127 173.491,89.540 173.491,89.792 173.453 C 90.044 173.415,89.837 173.383,89.333 173.383 C 88.829 173.383,88.623 173.415,88.875 173.453 M93.875 173.615 C 94.035 173.657,94.298 173.657,94.458 173.615 C 94.619 173.573,94.487 173.539,94.167 173.539 C 93.846 173.539,93.715 173.573,93.875 173.615 M103.208 173.615 C 103.369 173.657,103.631 173.657,103.792 173.615 C 103.952 173.573,103.821 173.539,103.500 173.539 C 103.179 173.539,103.048 173.573,103.208 173.615 " stroke="none" fill="#9c80b0" fill-rule="evenodd"></path><path id="path4" d="M88.875 173.453 C 89.127 173.491,89.540 173.491,89.792 173.453 C 90.044 173.415,89.837 173.383,89.333 173.383 C 88.829 173.383,88.623 173.415,88.875 173.453 M93.875 173.615 C 94.035 173.657,94.298 173.657,94.458 173.615 C 94.619 173.573,94.487 173.539,94.167 173.539 C 93.846 173.539,93.715 173.573,93.875 173.615 M103.208 173.615 C 103.369 173.657,103.631 173.657,103.792 173.615 C 103.952 173.573,103.821 173.539,103.500 173.539 C 103.179 173.539,103.048 173.573,103.208 173.615 " stroke="none" fill="#9c80b0" fill-rule="evenodd"></path></g></svg>